<?xml version="1.0" encoding="utf-8"?>
<!-- Generator: Adobe Illustrator 25.0.0, SVG Export Plug-In . SVG Version: 6.00 Build 0)  -->
<svg version="1.1" id="Layer_1" xmlns="http://www.w3.org/2000/svg" xmlns:xlink="http://www.w3.org/1999/xlink" x="0px" y="0px"
	 width="16px" height="16px" viewBox="0 0 16 16" enable-background="new 0 0 16 16" xml:space="preserve">
<g transform="scale(0.125, 0.125)"> <!-- Manually scaling from 128px to 16px, as required by Safari pinned-tab icons... - BAG -->
	<g>
		<path fill="#000000" d="M62.4,114.4c0.9,0.1,1.8,0.2,2.7,0.2c0.2-0.8,0.4-1.6,0.7-2.4c-1-0.1-2.1-0.2-3.1-0.3
			C62.5,112.9,62.4,113.7,62.4,114.4"/>
		<path fill="#000000" d="M63.3,104.7c1.5,0.1,2.9,0.2,4.4,0.2c0.2-0.8,0.4-1.6,0.7-2.5c-1.6,0-3.2-0.1-4.9-0.2
			C63.4,103.1,63.4,103.9,63.3,104.7"/>
		<path fill="#000000" d="M62.8,109.5c1.2,0.1,2.4,0.2,3.5,0.2c0.2-0.8,0.4-1.6,0.7-2.5c-1.3-0.1-2.7-0.1-4-0.3
			C63,108,62.9,108.8,62.8,109.5"/>
		<path fill="#000000" d="M63.7,99.8c1.8,0.1,3.5,0.2,5.3,0.2c0,0,0,0,0,0c0.2-0.8,0.4-1.6,0.7-2.5c-2,0-3.9,0-5.9-0.2
			C63.8,98.1,63.8,98.9,63.7,99.8"/>
		<path fill="#000000" d="M62.7,87.4c0.3,0.8,0.5,1.6,0.7,2.5c1.2,0.1,2.4,0.1,3.6,0.1c1.6,0,3.2-0.1,4.8-0.2
			c0.2-0.8,0.4-1.7,0.6-2.5C69.1,87.5,65.9,87.5,62.7,87.4"/>
		<path fill="#000000" d="M63.7,92.4c0.1,0.8,0.1,1.6,0.1,2.5c1.4,0.1,2.7,0.1,4.1,0.1c0.8,0,1.6,0,2.4,0c0.2-0.8,0.4-1.7,0.7-2.5
			c-1,0-2.1,0.1-3.1,0.1C66.5,92.5,65.1,92.4,63.7,92.4"/>
		<path fill="#000000" d="M54.1,115.6l0.6,3.4h1.5l-0.1-3C55.4,115.9,54.7,115.8,54.1,115.6"/>
		<path fill="#000000" d="M55.5,101.2c-1.4-0.2-2.8-0.5-4.2-0.8l0.5,2.6c1.3,0.3,2.5,0.5,3.8,0.7L55.5,101.2z"/>
		<path fill="#000000" d="M55.3,96.3c-1.6-0.3-3.3-0.6-4.9-1l0.5,2.6c1.5,0.3,3,0.6,4.5,0.8L55.3,96.3z"/>
		<path fill="#000000" d="M52.6,88.6c0.8,0.2,1.6,0.3,2.4,0.4l-0.1-2.4C54,87.1,53.3,87.8,52.6,88.6"/>
		<path fill="#000000" d="M44.3,79c-0.5,0.7-0.9,1.4-1.3,2.2c3.7,1.3,7.6,2.2,11.6,2.9c1.1-0.5,2.2-0.7,3.3-0.7
			c1.4,0,2.5,0.5,3.4,1.5c1.6,0.1,3.2,0.2,4.8,0.2c2.3,0,4.7-0.1,7.1-0.4c0.2-0.8,0.4-1.7,0.6-2.6c-2.6,0.3-5.1,0.4-7.7,0.4
			C58.5,82.5,51.2,81.3,44.3,79"/>
		<path fill="#000000" d="M62,119h1.9c0.2-0.6,0.4-1.3,0.5-2c-0.7-0.1-1.5-0.1-2.2-0.2C62,118.5,62,119,62,119"/>
		<path fill="#000000" d="M55.7,106.2c-1.2-0.2-2.3-0.4-3.5-0.6l0.5,2.6c1,0.2,2.1,0.4,3.1,0.5L55.7,106.2z"/>
		<path fill="#000000" d="M55.9,111.1c-0.9-0.2-1.8-0.3-2.7-0.5l0.5,2.6c0.8,0.1,1.6,0.3,2.4,0.4L55.9,111.1z"/>
		<path fill="#000000" d="M80.5,117.1l0.4,1.8h1.6l-0.2-2C81.7,117.1,81.1,117.1,80.5,117.1"/>
		<path fill="#000000" d="M77.8,34.8c-0.2,0.8-0.5,1.7-0.7,2.5c2.2-0.1,4.5-0.2,6.7-0.1c0.2-0.8,0.3-1.6,0.5-2.5
			C82.1,34.7,79.9,34.7,77.8,34.8"/>
		<path fill="#000000" d="M75.5,42.6c2.4-0.2,4.9-0.3,7.3-0.4c0.2-0.8,0.3-1.6,0.5-2.5c-2.3,0-4.7,0.1-7,0.3
			C76,40.9,75.7,41.7,75.5,42.6"/>
		<path fill="#000000" d="M79.2,29.8c-0.2,0.8-0.4,1.7-0.7,2.5c2.1-0.1,4.2,0,6.2,0c0.2-0.8,0.3-1.6,0.5-2.5
			C83.2,29.7,81.2,29.7,79.2,29.8"/>
		<path fill="#000000" d="M66.3,77.5L66.3,77.5c-0.3,0-0.5,0-0.8,0c-6.1,0.1-12.1-0.8-17.9-2.4c-0.6,0.6-1.3,1.3-1.9,2
			C51.9,79,58.4,80,64.9,80c0.2,0,1.1,0,1.4,0c2.7-0.1,5.4-0.3,8.1-0.7c0.2-0.9,0.4-1.7,0.6-2.6C72.1,77.2,69.2,77.4,66.3,77.5"/>
		<path fill="#000000" d="M81,22.3c1.8,0,3.7,0.1,5.5,0.2c0.1-0.8,0.3-1.6,0.4-2.4c-1.8-0.1-3.6-0.2-5.4-0.3
			C81.4,20.6,81.2,21.4,81,22.3"/>
		<path fill="#000000" d="M79.8,27.2c2,0,3.9,0.1,5.8,0.2c0.2-0.8,0.3-1.6,0.5-2.5c-1.9-0.1-3.8-0.2-5.7-0.2
			C80.2,25.6,80,26.4,79.8,27.2"/>
		<path fill="#000000" d="M83.1,13.8c-0.4-0.1-0.6-0.4-0.5-1c0.1-0.4,0.1-1.1-0.3-1.6c-0.7-0.9-2.2-0.9-2.2-0.9s-0.5,1.4,0.1,2.2
			c0.4,0.5,1.1,0.8,1.6,0.9c0.6,0.1,0.7,0.5,0.7,0.8c0,0.8,0,1.4-0.3,2.8c2.4,0.4,5.4,0.9,8.5,1.6l3,0.1l0.9-1.4
			C89.4,15.1,84.1,14,83.1,13.8"/>
		<path fill="#000000" d="M80,91.6c-1.5,0.2-2.9,0.4-4.4,0.5l0.5,2.4c1.4-0.1,2.7-0.3,4.1-0.5L80,91.6z"/>
		<path fill="#000000" d="M80.4,96.7c-1.3,0.2-2.6,0.3-3.9,0.4l0.5,2.4c1.2-0.1,2.4-0.2,3.6-0.4L80.4,96.7z"/>
		<path fill="#000000" d="M79.5,86.4c-1.6,0.3-3.2,0.5-4.9,0.7l0,0l0.5,2.4c1.5-0.2,3.1-0.4,4.6-0.6L79.5,86.4z"/>
		<path fill="#000000" d="M81.8,111.9c-0.8,0.1-1.5,0.1-2.3,0.2l0.5,2.4c0.7-0.1,1.4-0.1,2.1-0.2L81.8,111.9z"/>
		<path fill="#000000" d="M80.9,101.8c-1.1,0.1-2.2,0.3-3.3,0.3l0.5,2.4c1-0.1,2.1-0.2,3.1-0.3L80.9,101.8z"/>
		<path fill="#000000" d="M55.1,91.4c-1.3-0.2-2.6-0.5-4-0.8c-0.7,1.1-1.1,2-1.2,2.3c1.7,0.4,3.5,0.7,5.2,1L55.1,91.4z"/>
		<path fill="#000000" d="M81.4,106.9c-0.9,0.1-1.9,0.2-2.8,0.3l0.5,2.5c0.9-0.1,1.7-0.2,2.6-0.2L81.4,106.9z"/>
		<path fill="#000000" d="M34.6,112.7c0.8,0.3,1.6,0.6,2.4,0.9c0.2-0.7,0.5-1.5,0.8-2.3c-0.9-0.3-1.9-0.7-2.8-1
			C34.9,111.1,34.7,111.9,34.6,112.7"/>
		<path fill="#000000" d="M78.3,62.8c0.2-0.9,0.4-1.7,0.6-2.6c-2.1,0.3-4.2,0.6-6.3,1.1c-2.5,0.6-5,0.9-7.5,1.1c-1,1-2,1.8-3.1,2.6
			c3.7,0,7.4-0.4,11.1-1.3C74.8,63.4,76.6,63,78.3,62.8"/>
		<path fill="#000000" d="M75.3,68.6c0.6-0.1,1.2-0.3,1.7-0.4c0.2-0.9,0.4-1.8,0.6-2.6c-1,0.2-1.9,0.4-2.9,0.6
			c-4,0.9-8,1.3-11.9,1.3c-1.4,0-2.9-0.1-4.3-0.2c-1.1,0.7-2.3,1.4-3.4,2.1c2.5,0.4,5.1,0.5,7.7,0.5C67,70,71.1,69.6,75.3,68.6"/>
		<path fill="#000000" d="M75.2,84.4c1.3-0.2,2.7-0.4,4-0.6l-0.2-2.5c-1.1,0.2-2.2,0.4-3.3,0.6L75.2,84.4z"/>
		<path fill="#000000" d="M75.7,73.8c0.2-0.9,0.4-1.8,0.6-2.7c-8.1,1.8-16.3,1.8-24.2,0.2c-0.9,0.6-1.8,1.3-2.6,2
			C54.2,74.4,59,75,63.8,75C67.8,75,71.7,74.6,75.7,73.8"/>
		<path fill="#000000" d="M81.2,49.8c-2.9,0.2-5.8,0.5-8.6,1c-0.1,0.2-0.2,0.4-0.2,0.6c-0.3,0.7-0.6,1.5-0.9,2.1
			c3.1-0.6,6.2-1,9.3-1.2C80.8,51.5,81,50.6,81.2,49.8"/>
		<path fill="#000000" d="M82.3,44.7c-2.6,0.1-5.1,0.3-7.7,0.6c-0.3,0.9-0.6,1.8-0.9,2.6c2.7-0.4,5.4-0.6,8.1-0.7
			C81.9,46.4,82.1,45.6,82.3,44.7"/>
		<path fill="#000000" d="M41.9,83.1c-0.3,0.7-0.7,1.5-1,2.3c2.7,1,5.5,1.8,8.3,2.5c0.7-0.8,1.5-1.5,2.2-2
			C48.2,85.2,45,84.2,41.9,83.1"/>
		<path fill="#000000" d="M77.6,73.4c0.3-0.1,0.5-0.1,0.8-0.2l-0.2-2.4L77.6,73.4z"/>
		<path fill="#000000" d="M76.4,79c0.8-0.1,1.6-0.3,2.4-0.5L78.6,76c-0.5,0.1-1.1,0.2-1.6,0.3L76.4,79z"/>
		<path fill="#000000" d="M79.5,57.5c0.2-0.8,0.4-1.7,0.6-2.5c-3.2,0.3-6.5,0.8-9.7,1.5c-0.2,0-0.4,0.1-0.6,0.1c-0.6,1-1.3,2-2,2.9
			c1.1-0.2,2.1-0.4,3.2-0.6C73.8,58.2,76.6,57.8,79.5,57.5"/>
		<path fill="#000000" d="M84.9,11.3c0.6,0.1,1.2-0.3,1.3-0.9S86,9.2,85.4,9c-0.6-0.1-1.2,0.3-1.3,0.9
			C83.9,10.6,84.3,11.2,84.9,11.3"/>
		<path fill="#000000" d="M37.4,98.9c1.5,0.6,2.9,1.1,4.4,1.6c0.3-0.8,0.6-1.6,1-2.3c-1.6-0.5-3.2-1.1-4.8-1.7
			C37.8,97.3,37.6,98.1,37.4,98.9"/>
		<path fill="#000000" d="M35.5,108.1c1,0.4,2.1,0.8,3.1,1.1c0.3-0.7,0.6-1.5,0.9-2.3c-1.2-0.4-2.3-0.8-3.5-1.3
			C35.8,106.5,35.6,107.3,35.5,108.1"/>
		<path fill="#000000" d="M36.4,103.5c1.2,0.5,2.5,0.9,3.8,1.4c0.3-0.7,0.6-1.5,0.9-2.3c-1.4-0.5-2.7-1-4.1-1.5
			C36.8,101.9,36.6,102.7,36.4,103.5"/>
		<path fill="#000000" d="M33.4,119h1.6c0.2-0.5,0.8-2.3,1.2-3.4c-0.7-0.3-1.4-0.5-2.1-0.8C34,115.8,33.6,118.3,33.4,119"/>
		<path fill="#000000" d="M38.4,94.4c1.8,0.7,3.5,1.3,5.3,1.8c0.4-0.8,0.8-1.5,1.2-2.2c-2-0.6-4-1.3-5.9-2
			C38.8,92.7,38.6,93.6,38.4,94.4"/>
		<path fill="#000000" d="M39.5,89.8c2.2,0.8,4.4,1.5,6.6,2.1c0.5-0.8,1-1.5,1.5-2.2c-2.5-0.7-5-1.5-7.4-2.4
			C40,88.2,39.7,89,39.5,89.8"/>
	</g>
</g>
</svg>
